<svg width="128" height="128" viewBox="0 0 128 128" fill="none" xmlns="http://www.w3.org/2000/svg">
<mask id="path-1-inside-1_1006_30" fill="white">
<path fill-rule="evenodd" clip-rule="evenodd" d="M127.981 28.0934L99.8876 0L63.9905 35.8971L28.1124 0.0190935L0.0190143 28.1125L35.8971 63.9905L0 99.8876L28.0934 127.981L63.9904 92.0839L99.9066 128L128 99.9067L92.0838 63.9905L127.981 28.0934Z"/>
</mask>
<path d="M99.8876 0L103.07 -3.18198L99.8876 -6.36396L96.7056 -3.18198L99.8876 0ZM127.981 28.0934L131.163 31.2754L134.345 28.0934L131.163 24.9114L127.981 28.0934ZM63.9905 35.8971L60.8085 39.0791L63.9905 42.2611L67.1724 39.0791L63.9905 35.8971ZM28.1124 0.0190935L31.2944 -3.16289L28.1124 -6.34487L24.9304 -3.16289L28.1124 0.0190935ZM0.0190143 28.1125L-3.16297 24.9305L-6.34495 28.1125L-3.16297 31.2945L0.0190143 28.1125ZM35.8971 63.9905L39.079 67.1725L42.261 63.9905L39.079 60.8085L35.8971 63.9905ZM0 99.8876L-3.18198 96.7056L-6.36396 99.8876L-3.18198 103.07L0 99.8876ZM28.0934 127.981L24.9114 131.163L28.0934 134.345L31.2754 131.163L28.0934 127.981ZM63.9904 92.0839L67.1724 88.9019L63.9904 85.72L60.8085 88.9019L63.9904 92.0839ZM99.9066 128L96.7246 131.182L99.9066 134.364L103.089 131.182L99.9066 128ZM128 99.9067L131.182 103.089L134.364 99.9067L131.182 96.7247L128 99.9067ZM92.0838 63.9905L88.9019 60.8085L85.7199 63.9905L88.9019 67.1725L92.0838 63.9905ZM91.0077 2.51598L87.8257 5.69796L94.1896 12.0619L97.3716 8.87994L91.0077 2.51598ZM72.8704 33.3812L76.0524 30.1992L69.6884 23.8352L66.5064 27.0172L72.8704 33.3812ZM61.4775 27.0202L58.2955 23.8383L51.9316 30.2022L55.1135 33.3842L61.4775 27.0202ZM30.6253 8.896L33.8073 12.078L40.1713 5.71402L36.9893 2.53204L30.6253 8.896ZM20.4712 1.29638L17.2892 4.47836L23.6531 10.8423L26.8351 7.66034L20.4712 1.29638ZM7.66026 26.8352L10.8422 23.6532L4.47828 17.2892L1.2963 20.4712L7.66026 26.8352ZM2.53196 36.9894L5.71394 40.1714L12.0779 33.8074L8.89592 30.6254L2.53196 36.9894ZM33.3841 55.1136L30.2021 51.9316L23.8382 58.2956L27.0202 61.4776L33.3841 55.1136ZM27.0171 66.5065L23.8352 69.6885L30.1991 76.0524L33.3811 72.8705L27.0171 66.5065ZM8.87993 97.3716L12.0619 94.1896L5.69795 87.8257L2.51597 91.0077L8.87993 97.3716ZM1.27729 107.529L4.45927 110.711L10.8232 104.347L7.64125 101.165L1.27729 107.529ZM26.8161 120.34L23.6341 117.158L17.2702 123.522L20.4521 126.704L26.8161 120.34ZM36.9733 125.465L40.1553 122.283L33.7913 115.919L30.6094 119.101L36.9733 125.465ZM55.1105 94.5999L51.9285 97.7819L58.2925 104.146L61.4745 100.964L55.1105 94.5999ZM66.5094 100.967L69.6914 104.149L76.0554 97.7849L72.8734 94.6029L66.5094 100.967ZM97.3876 119.117L94.2056 115.935L87.8417 122.299L91.0237 125.481L97.3876 119.117ZM107.548 126.723L110.73 123.541L104.366 117.177L101.184 120.359L107.548 126.723ZM120.359 101.184L117.177 104.366L123.541 110.73L126.723 107.548L120.359 101.184ZM125.481 91.0237L122.299 87.8417L115.935 94.2057L119.117 97.3877L125.481 91.0237ZM94.6028 72.8735L97.7848 76.0555L104.149 69.6915L100.967 66.5095L94.6028 72.8735ZM100.964 61.4745L104.146 58.2926L97.7818 51.9286L94.5998 55.1106L100.964 61.4745ZM119.101 30.6094L115.919 33.7913L122.283 40.1553L125.465 36.9733L119.101 30.6094ZM126.704 20.4521L123.522 17.2702L117.158 23.6341L120.34 26.8161L126.704 20.4521ZM101.165 7.64125L104.347 10.8232L110.711 4.45927L107.529 1.27729L101.165 7.64125ZM96.7056 -3.18198L91.0077 2.51598L97.3716 8.87994L103.07 3.18198L96.7056 -3.18198ZM66.5064 27.0172L60.8085 32.7152L67.1724 39.0791L72.8704 33.3812L66.5064 27.0172ZM67.1724 32.7152L61.4775 27.0202L55.1135 33.3842L60.8085 39.0791L67.1724 32.7152ZM36.9893 2.53204L31.2944 -3.16289L24.9304 3.20107L30.6253 8.896L36.9893 2.53204ZM24.9304 -3.16289L20.4712 1.29638L26.8351 7.66034L31.2944 3.20107L24.9304 -3.16289ZM1.2963 20.4712L-3.16297 24.9305L3.20099 31.2945L7.66026 26.8352L1.2963 20.4712ZM-3.16297 31.2945L2.53196 36.9894L8.89592 30.6254L3.20099 24.9305L-3.16297 31.2945ZM27.0202 61.4776L32.7151 67.1725L39.079 60.8085L33.3841 55.1136L27.0202 61.4776ZM32.7151 60.8085L27.0171 66.5065L33.3811 72.8705L39.079 67.1725L32.7151 60.8085ZM2.51597 91.0077L-3.18198 96.7056L3.18198 103.07L8.87993 97.3716L2.51597 91.0077ZM-3.18198 103.07L1.27729 107.529L7.64125 101.165L3.18198 96.7056L-3.18198 103.07ZM20.4521 126.704L24.9114 131.163L31.2754 124.799L26.8161 120.34L20.4521 126.704ZM31.2754 131.163L36.9733 125.465L30.6094 119.101L24.9114 124.799L31.2754 131.163ZM61.4745 100.964L67.1724 95.2659L60.8085 88.9019L55.1105 94.5999L61.4745 100.964ZM60.8085 95.2659L66.5094 100.967L72.8734 94.6029L67.1724 88.9019L60.8085 95.2659ZM91.0237 125.481L96.7246 131.182L103.089 124.818L97.3876 119.117L91.0237 125.481ZM103.089 131.182L107.548 126.723L101.184 120.359L96.7246 124.818L103.089 131.182ZM126.723 107.548L131.182 103.089L124.818 96.7247L120.359 101.184L126.723 107.548ZM131.182 96.7247L125.481 91.0237L119.117 97.3877L124.818 103.089L131.182 96.7247ZM100.967 66.5095L95.2658 60.8085L88.9019 67.1725L94.6028 72.8735L100.967 66.5095ZM95.2658 67.1725L100.964 61.4745L94.5998 55.1106L88.9019 60.8085L95.2658 67.1725ZM125.465 36.9733L131.163 31.2754L124.799 24.9114L119.101 30.6094L125.465 36.9733ZM131.163 24.9114L126.704 20.4521L120.34 26.8161L124.799 31.2754L131.163 24.9114ZM107.529 1.27729L103.07 -3.18198L96.7056 3.18198L101.165 7.64125L107.529 1.27729ZM99.8876 0L106.252 -6.36396L99.8876 -12.7279L93.5236 -6.36396L99.8876 0ZM127.981 28.0934L134.345 34.4573L140.709 28.0934L134.345 21.7294L127.981 28.0934ZM63.9905 35.8971L57.6265 42.2611L63.9905 48.6251L70.3544 42.2611L63.9905 35.8971ZM28.1124 0.0190935L34.4764 -6.34487L28.1124 -12.7088L21.7484 -6.34487L28.1124 0.0190935ZM0.0190143 28.1125L-6.34495 21.7485L-12.7089 28.1125L-6.34495 34.4764L0.0190143 28.1125ZM35.8971 63.9905L42.261 70.3545L48.625 63.9905L42.261 57.6266L35.8971 63.9905ZM0 99.8876L-6.36396 93.5236L-12.7279 99.8876L-6.36396 106.252L0 99.8876ZM28.0934 127.981L21.7294 134.345L28.0934 140.709L34.4573 134.345L28.0934 127.981ZM63.9904 92.0839L70.3544 85.72L63.9904 79.356L57.6265 85.72L63.9904 92.0839ZM99.9066 128L93.5426 134.364L99.9066 140.728L106.271 134.364L99.9066 128ZM128 99.9067L134.364 106.271L140.728 99.9067L134.364 93.5427L128 99.9067ZM92.0838 63.9905L85.7199 57.6266L79.3559 63.9905L85.7199 70.3545L92.0838 63.9905ZM87.8257 -0.666002L81.4617 5.69796L94.1896 18.4259L100.554 12.0619L87.8257 -0.666002ZM76.0524 36.5631L82.4163 30.1992L69.6884 17.4713L63.3244 23.8352L76.0524 36.5631ZM64.6595 23.8383L58.2955 17.4743L45.5676 30.2022L51.9316 36.5662L64.6595 23.8383ZM27.4434 12.078L33.8073 18.4419L46.5353 5.71402L40.1713 -0.64994L27.4434 12.078ZM17.2892 -1.8856L10.9252 4.47836L23.6531 17.2063L30.0171 10.8423L17.2892 -1.8856ZM10.8422 30.0172L17.2062 23.6532L4.47828 10.9253L-1.88568 17.2892L10.8422 30.0172ZM-0.650019 40.1714L5.71394 46.5353L18.4419 33.8074L12.0779 27.4434L-0.650019 40.1714ZM36.5661 51.9316L30.2021 45.5677L17.4742 58.2956L23.8382 64.6596L36.5661 51.9316ZM23.8352 63.3245L17.4712 69.6885L30.1991 82.4164L36.5631 76.0524L23.8352 63.3245ZM12.0619 100.554L18.4259 94.1896L5.69795 81.4617L-0.666015 87.8257L12.0619 100.554ZM-1.90469 110.711L4.45927 117.075L17.1872 104.347L10.8232 97.9829L-1.90469 110.711ZM29.9981 117.158L23.6341 110.794L10.9062 123.522L17.2702 129.886L29.9981 117.158ZM40.1553 128.647L46.5193 122.283L33.7913 109.555L27.4274 115.919L40.1553 128.647ZM51.9285 91.4179L45.5646 97.7819L58.2925 110.51L64.6565 104.146L51.9285 91.4179ZM63.3275 104.149L69.6914 110.513L82.4193 97.7849L76.0554 91.4209L63.3275 104.149ZM100.57 115.935L94.2056 109.571L81.4777 122.299L87.8417 128.663L100.57 115.935ZM110.73 129.905L117.094 123.541L104.366 110.813L98.0019 117.177L110.73 129.905ZM117.177 98.002L110.813 104.366L123.541 117.094L129.905 110.73L117.177 98.002ZM128.663 87.8417L122.299 81.4778L109.571 94.2057L115.935 100.57L128.663 87.8417ZM91.4209 76.0555L97.7848 82.4194L110.513 69.6915L104.149 63.3275L91.4209 76.0555ZM104.146 64.6565L110.51 58.2926L97.7818 45.5646L91.4178 51.9286L104.146 64.6565ZM115.919 27.4274L109.555 33.7913L122.283 46.5193L128.647 40.1553L115.919 27.4274ZM129.886 17.2702L123.522 10.9062L110.794 23.6341L117.158 29.9981L129.886 17.2702ZM97.9829 10.8232L104.347 17.1872L117.075 4.45927L110.711 -1.90469L97.9829 10.8232ZM93.5236 -6.36396L87.8257 -0.666002L100.554 12.0619L106.252 6.36396L93.5236 -6.36396ZM63.3244 23.8352L57.6265 29.5332L70.3544 42.2611L76.0524 36.5631L63.3244 23.8352ZM70.3544 29.5332L64.6595 23.8383L51.9316 36.5662L57.6265 42.2611L70.3544 29.5332ZM40.1713 -0.64994L34.4764 -6.34487L21.7484 6.38305L27.4434 12.078L40.1713 -0.64994ZM21.7484 -6.34487L17.2892 -1.8856L30.0171 10.8423L34.4764 6.38305L21.7484 -6.34487ZM-1.88568 17.2892L-6.34495 21.7485L6.38298 34.4764L10.8422 30.0172L-1.88568 17.2892ZM-6.34495 34.4764L-0.650019 40.1714L12.0779 27.4434L6.38298 21.7485L-6.34495 34.4764ZM23.8382 64.6596L29.5331 70.3545L42.261 57.6266L36.5661 51.9316L23.8382 64.6596ZM29.5331 57.6266L23.8352 63.3245L36.5631 76.0524L42.261 70.3545L29.5331 57.6266ZM-0.666015 87.8257L-6.36396 93.5236L6.36396 106.252L12.0619 100.554L-0.666015 87.8257ZM-6.36396 106.252L-1.90469 110.711L10.8232 97.9829L6.36396 93.5236L-6.36396 106.252ZM17.2702 129.886L21.7294 134.345L34.4573 121.617L29.9981 117.158L17.2702 129.886ZM34.4573 134.345L40.1553 128.647L27.4274 115.919L21.7294 121.617L34.4573 134.345ZM64.6565 104.146L70.3544 98.4479L57.6265 85.72L51.9285 91.4179L64.6565 104.146ZM57.6265 98.4479L63.3275 104.149L76.0554 91.4209L70.3544 85.72L57.6265 98.4479ZM87.8417 128.663L93.5426 134.364L106.271 121.636L100.57 115.935L87.8417 128.663ZM106.271 134.364L110.73 129.905L98.0019 117.177L93.5426 121.636L106.271 134.364ZM129.905 110.73L134.364 106.271L121.636 93.5427L117.177 98.002L129.905 110.73ZM134.364 93.5427L128.663 87.8417L115.935 100.57L121.636 106.271L134.364 93.5427ZM104.149 63.3275L98.4478 57.6266L85.7199 70.3545L91.4209 76.0555L104.149 63.3275ZM98.4478 70.3545L104.146 64.6565L91.4178 51.9286L85.7199 57.6266L98.4478 70.3545ZM128.647 40.1553L134.345 34.4573L121.617 21.7294L115.919 27.4274L128.647 40.1553ZM134.345 21.7294L129.886 17.2702L117.158 29.9981L121.617 34.4573L134.345 21.7294ZM110.711 -1.90469L106.252 -6.36396L93.5236 6.36396L97.9829 10.8232L110.711 -1.90469Z" fill="black" mask="url(#path-1-inside-1_1006_30)"/>
</svg>
